<!DOCTYPE svg PUBLIC "-//W3C//DTD SVG 1.1//EN" "http://www.w3.org/Graphics/SVG/1.1/DTD/svg11.dtd">
<!-- Uploaded to: SVG Repo, www.svgrepo.com, Transformed by: SVG Repo Mixer Tools -->
<svg width="800px" height="800px" viewBox="0 0 24 24" data-name="Layer 1" id="Layer_1" xmlns="http://www.w3.org/2000/svg" fill="#000000">
<g id="SVGRepo_bgCarrier" stroke-width="0"/>
<g id="SVGRepo_tracerCarrier" stroke-linecap="round" stroke-linejoin="round"/>
<g id="SVGRepo_iconCarrier">
<title/>
<path d="M19,20H5V9a7,7,0,0,1,7-7h0a7,7,0,0,1,7,7Z" style="fill:#696c6d"/>
<path d="M5,18H19a2,2,0,0,1,2,2v2a0,0,0,0,1,0,0H3a0,0,0,0,1,0,0V20A2,2,0,0,1,5,18Z" style="fill:#d9d9d9"/>
<rect height="2" style="fill:#fff" width="8" x="8" y="8"/>
<rect height="2" style="fill:#fff" width="8" x="8" y="12"/>
</g>
</svg>