<?xml version="1.0" encoding="UTF-8" standalone="no"?>
<!-- Created with Inkscape (http://www.inkscape.org/) -->

<svg
   version="1.1"
   id="svg55"
   width="3094.6667"
   height="357.33334"
   viewBox="0 0 3094.6667 357.33334"
   sodipodi:docname="logo_mode_dark.svg"
   inkscape:version="1.1.2 (0a00cf5339, 2022-02-04)"
   xmlns:inkscape="http://www.inkscape.org/namespaces/inkscape"
   xmlns:sodipodi="http://sodipodi.sourceforge.net/DTD/sodipodi-0.dtd"
   xmlns="http://www.w3.org/2000/svg"
   xmlns:svg="http://www.w3.org/2000/svg">
  <defs
     id="defs59" />
  <sodipodi:namedview
     id="namedview57"
     pagecolor="#ffffff"
     bordercolor="#666666"
     borderopacity="1.0"
     inkscape:pageshadow="2"
     inkscape:pageopacity="0.0"
     inkscape:pagecheckerboard="0"
     showgrid="false"
     inkscape:zoom="0.53627088"
     inkscape:cx="1422.7884"
     inkscape:cy="334.7189"
     inkscape:window-width="2560"
     inkscape:window-height="1376"
     inkscape:window-x="0"
     inkscape:window-y="0"
     inkscape:window-maximized="1"
     inkscape:current-layer="g61" />
  <g
     inkscape:groupmode="layer"
     inkscape:label="Image"
     id="g61">
    <path
       style="fill:#b3b3b3;stroke-width:1.33333;fill-opacity:1"
       d="m 2560.3741,355.22368 c -12.0485,-1.01363 -20.9944,-3.05816 -27.0332,-6.17826 -2.0349,-1.0514 -7.1048,-2.54108 -11.2664,-3.3104 -9.174,-1.69589 -31.877,-10.57888 -38.7264,-15.15241 -15.6985,-10.48237 -22.2313,-15.81877 -31.8448,-26.01268 -17.4321,-18.48445 -29.4093,-35.69275 -36.5612,-52.52956 -2.2125,-5.20874 -4.8528,-10.99078 -5.8672,-12.84895 -1.9258,-3.52769 -5.9153,-19.56151 -8.6964,-34.95155 -1.0254,-5.67428 -1.311,-13.79874 -0.7733,-22 0.4688,-7.1518 1.1124,-19.11812 1.4301,-26.59182 0.6195,-14.57127 3.4526,-29.28475 6.567,-34.10541 1.0564,-1.63499 3.4904,-7.17271 5.4089,-12.30605 4.9145,-13.149358 15.7975,-33.060318 22.8831,-41.865448 10.5892,-13.15927 33.971,-33.86286 44.2073,-39.14353 5.1651,-2.66461 12.1163,-6.9249 15.4471,-9.46731 3.3306,-2.5424 8.029,-5.0247 10.4406,-5.5162 4.417,-0.90021 7.7779,-1.79619 29.7182,-7.922688 9.5932,-2.678742 17.081,-3.602577 37.3333,-4.60605495 27.8429,-1.379593 35.1956,-0.724862 49.6416,4.42045995 5.3029,1.888753 11.646,3.4341029 14.0959,3.4341029 5.9872,0 15.5122,3.3533201 27.5958,9.7152401 5.5,2.89569 14.2664,7.46993 19.4811,10.16498 6.6649,3.44466 11.7972,7.45738 17.2793,13.50993 4.2892,4.73542 12.1554,12.96658 17.4806,18.29147 5.325,5.32489 12.681,14.32489 16.3464,20 3.6654,5.67511 8.4425,12.72458 10.6156,15.66549 5.3354,7.220338 9.0281,16.192138 10.8142,26.273918 0.8164,4.60844 2.399,11.37898 3.5166,15.04564 2.8354,9.30264 4.0502,53.17982 1.8962,68.49202 -0.8904,6.32938 -2.4961,13.81953 -3.5684,16.64476 -1.0721,2.82524 -3.1282,10.19237 -4.569,16.37144 -2.9118,12.48792 -7.4502,22.46176 -13.8746,30.49179 -4.5042,5.63009 -13.6796,18.9214 -16.314,23.63226 -3.0542,5.4618 -11.3984,14.52074 -16.2149,17.60403 -2.6889,1.72135 -7.5937,5.74737 -10.8993,8.94672 -6.6379,6.42441 -22.3039,15.21408 -31.8398,17.86424 -3.3825,0.94004 -9.45,3.05079 -13.4833,4.69055 -4.0333,1.63976 -10.0333,4.03922 -13.3333,5.33217 -8.6063,3.37192 -45.6658,9.303 -56.6667,9.06904 -5.1333,-0.1092 -14.4333,-0.62753 -20.6667,-1.15193 z m 38.935,-74.24914 c 2.5089,-9.68249 13.0258,-15.07128 29.4134,-15.07128 8.697,0 21.5519,-3.01448 23.0259,-5.39957 0.4521,-0.73166 -0.2017,-4.01119 -1.4531,-7.28786 -1.4462,-3.78704 -2.0152,-7.89641 -1.5614,-11.27913 0.6504,-4.84857 0.4961,-5.20505 -1.7354,-4.01083 -3.4566,1.84999 -3.9577,1.67022 -3.9577,-1.42013 0,-2.38363 -0.624,-2.12489 -4.9072,2.03497 -6.0887,5.91327 -9.8497,6.922 -16.3249,4.37846 -4.7316,-1.85858 -5.0439,-1.83032 -4.9104,0.44414 0.079,1.33594 1.3425,3.33487 2.8092,4.44206 2.0777,1.56848 2.211,2.02245 0.6038,2.05549 -1.1344,0.0233 -4.4062,-2.3576 -7.2705,-5.29093 -2.8643,-2.93334 -6.0072,-5.33334 -6.9841,-5.33334 -5.1115,0 -13.7887,-8.48129 -18.4158,-18 -7.4221,-15.26853 -0.8869,-33.79364 13.7155,-38.87905 7.2751,-2.53361 16.7041,-2.25488 20.5045,0.60615 1.749,1.31656 5.7742,3.52765 8.945,4.91353 8.2432,3.60292 17.0793,13.95187 19.7897,23.17793 2.1705,7.38806 2.2271,7.44732 3.352,3.51478 0.6293,-2.2 0.778,-9.1 0.3305,-15.33334 -0.4828,-6.72484 -0.251,-12.78346 0.57,-14.89953 0.761,-1.96141 5.3156,-7.73437 10.1215,-12.8288 10.1468,-10.75612 10.3748,-11.93973 6.0596,-31.45837 -4.2443,-19.19825 -8.8667,-26.14319 -26.0829,-39.18818 -26.837,-20.334758 -39.9052,-25.139988 -64.3563,-23.663938 -27.2449,1.6447 -42.0281,7.5813 -59.8085,24.017638 -10.202,9.43082 -11.5367,11.32116 -20.1404,28.52612 -8.2823,16.56202 -15.1147,36.4251 -13.1911,38.34877 0.4001,0.40009 1.7169,-1.1858 2.9261,-3.52419 1.2092,-2.3384 5.7535,-7.92988 10.0983,-12.4255 4.3448,-4.49563 7.8997,-8.93816 7.8997,-9.87228 0,-0.93412 0.6791,-1.6984 1.509,-1.6984 2.9421,0 0.091,10.73074 -5.24,19.72218 -2.9168,4.91947 -5.6991,10.74448 -6.1828,12.94448 -0.4836,2.2 -1.2142,5.12166 -1.6232,6.49258 -0.4194,1.40565 1.3881,0.1328 4.1453,-2.91898 8.5697,-9.48578 25.288,-17.10785 34.886,-15.90505 21.4087,2.68291 32.5057,11.83784 32.5057,26.81693 0,12.14442 -8.326,26.03595 -15.6666,26.13906 -3.364,0.0472 -3.8103,-1.23923 -1.3334,-3.84354 0.9658,-1.01538 -0.2928,-0.76186 -2.9926,0.60286 -3.0187,1.52584 -8.9482,2.5795 -16.8387,2.99222 -11.7436,0.61427 -12.1029,0.72624 -10.0443,3.1305 1.1742,1.37138 2.9016,2.49342 3.8386,2.49342 0.937,0 1.7037,0.6 1.7037,1.33334 0,1.84317 -1.9435,1.67132 -7.5389,-0.66667 -2.6327,-1.1 -6.78,-2 -9.2163,-2 -6.7517,0 -11.106,-4.58067 -13.3259,-14.01885 -1.0325,-4.38963 -1.9021,-10.08115 -1.9325,-12.64782 -0.049,-4.13572 -0.4037,-3.64404 -3.1184,4.32155 -2.2936,6.73039 -4.3765,10.12353 -8.2915,13.50783 l -5.2285,4.5196 3.326,4.58344 c 4.3903,6.04998 12.5005,13.04969 20.3283,17.54458 8.4364,4.8444 12.2826,12.1057 11.21,21.16311 -0.723,6.10384 -0.5626,6.54751 2.8441,7.86469 1.9856,0.76776 5.7103,1.71315 8.2769,2.10087 2.5667,0.38772 6.8239,2.15234 9.4604,3.92136 2.728,1.83036 7.7723,3.56919 11.7056,4.03503 3.8016,0.45024 7.2298,1.33296 7.6183,1.96161 0.3885,0.62866 2.6511,1.143 5.0277,1.143 2.3768,0 4.9531,0.63179 5.7254,1.40396 0.7721,0.77218 6.1421,1.9484 11.9333,2.61383 5.7911,0.66544 12.6293,1.76893 15.196,2.45223 6.268,1.66866 7.0371,1.35256 8.2683,-3.39874 z m -44.935,-19.85563 c -2.2,-0.95666 -5.0793,-1.4218 -6.3986,-1.03362 -1.3192,0.38818 -3.8692,-0.25782 -5.6667,-1.43552 -8.4836,-5.55871 0.3025,-28.94274 16.8127,-44.74651 2.6814,-2.56667 5.228,-5.68171 5.6589,-6.92231 0.4311,-1.24061 2.3405,-3.27572 4.2433,-4.52246 5.3644,-3.51484 9.0308,-1.10291 11.2022,7.36904 0.9748,3.80365 2.7346,8.82673 3.9108,11.1624 2.767,5.49557 3.8182,28.10326 1.6169,34.77374 -1.7005,5.15234 -6.6352,6.94766 -6.7973,2.47292 -0.061,-1.70362 -0.4271,-1.47752 -1.3536,0.83783 -1.094,2.73347 -1.9123,3.0668 -5.9283,2.41509 -2.5624,-0.41582 -6.3959,-1.99284 -8.5188,-3.50448 -5.3772,-3.8289 -7.036,-3.59145 -5.3779,0.76982 0.7358,1.93504 1.171,3.64992 0.9671,3.81085 -0.2039,0.16093 -2.1707,-0.49012 -4.3707,-1.44679 z m 117.038,-42.6081 c 4.0582,-7.91868 6.5694,-21.53231 7.6254,-41.33868 0.5882,-11.03546 0.7581,-21.69432 0.3773,-23.68636 -1.4927,-7.80843 -2.7705,-4.20067 -3.8147,10.77018 -0.8216,11.77872 -1.2953,14.32871 -1.9161,10.31398 -0.5081,-3.28611 -1.1532,-4.56563 -1.6807,-3.33334 -3.62,8.45879 -6.2946,17.3475 -6.2952,20.92131 -4e-4,2.34005 -0.5704,4.60673 -1.2666,5.03705 -1.1506,0.71112 -1.5899,-0.84252 -3.1928,-11.29169 -0.3654,-2.38113 -0.5632,-1.97499 -0.693,1.42179 -0.1,2.61532 0.4639,8.24686 1.2528,12.51456 1.338,7.23789 0.2875,22.4908 -2.346,34.06365 -0.5366,2.35817 0.796,1.18799 4.5555,-4 2.9227,-4.03333 6.25,-9.15993 7.3941,-11.39245 z m 246.2954,135.25851 c -11.1936,-1.13668 -16.8574,-2.2896 -24.6667,-5.02115 -2.2,-0.76952 -10.1597,-3.35969 -17.6884,-5.75595 -7.5287,-2.39626 -15.2644,-5.61346 -17.1907,-7.14934 -4.6242,-3.68727 -5.6618,-11.58356 -4.9094,-37.35991 0.3197,-10.95217 0.5772,-25.14587 0.5722,-31.54154 -0.013,-10.52169 0.314,-12.01252 3.3858,-15.66308 3.786,-4.49945 6.9897,-4.47114 14.6545,0.12947 2.2867,1.37247 5.1605,2.49539 6.3865,2.49539 1.226,0 4.684,1.25244 7.6846,2.7832 3.0005,1.53076 8.2266,3.64037 11.6136,4.68801 10.7802,3.33457 44.1752,7.30035 63.8074,7.57738 l 18.9828,0.26785 4.0042,-4.00411 c 3.2574,-3.25743 4.1613,-5.50908 4.8476,-12.07443 1.2509,-11.96772 -0.6798,-14.76204 -15.0443,-21.77469 -6.4752,-3.16116 -14.4731,-7.12097 -17.7731,-8.7996 -3.3,-1.67863 -10.2,-4.63997 -15.3333,-6.58079 -9.3639,-3.5403 -29.1571,-13.21186 -49.6376,-24.25446 -13.7195,-7.39723 -25.3595,-18.05279 -30.7021,-28.1057 -6.254,-11.76772 -14.6184,-34.84406 -15.6064,-43.056 -1.8218,-15.14132 7.4096,-57.517258 14.8962,-68.380968 4.4736,-6.49154 18.112,-19.24028 28.412,-26.55862 4.4332,-3.14989 10.639,-7.56408 13.7906,-9.8093 8.587,-6.1175601 24.6294,-10.842052 44.9458,-13.23666 20.6308,-2.43163995 48.3864,-2.78226895 61.9015,-0.781981 5.1333,0.759756 14.3027,1.393259 20.3761,1.407785 7.0819,0.01694 12.821,0.787894 16,2.149362 2.7266,1.167624 7.7712,2.9801739 11.2106,4.0278839 4.3645,1.3295701 7.7122,3.6081101 11.0836,7.5437201 5.3218,6.21251 5.3676,6.60868 4.4966,38.97211 -0.574,21.33205 -0.5016,25.22121 0.5976,32.07499 0.9087,5.66496 0.6787,7.23892 -1.4398,9.855227 l -2.5212,3.113561 -14.5684,-4.791168 c -8.0127,-2.63509 -16.9684,-5.20749 -19.9018,-5.71638 -2.9333,-0.50889 -7.7258,-1.76137 -10.65,-2.78327 -3.7566,-1.31288 -12.2492,-1.86736 -28.9449,-1.88987 -37.4331,-0.0505 -43.7384,2.76065 -43.7384,19.499998 0,5.62256 0.8469,8.9406 3.3895,13.27908 3.8045,6.49199 6.1213,7.79656 30.7114,17.29329 8.7446,3.37715 17.0991,6.66268 18.5658,7.3012 1.4666,0.63852 4.6982,1.92807 7.1812,2.86567 4.4617,1.68478 17.9864,9.33778 34.8188,19.70242 4.7666,2.93511 14.6242,10.92978 21.9058,17.76594 11.9783,11.24545 13.7994,13.61109 19.1195,24.83564 7.4095,15.63305 9.1167,26.30886 7.0693,44.20724 -0.8002,6.9959 -1.7469,16.61083 -2.1037,21.36651 -1.0049,13.39433 -5.2211,24.08461 -14.1765,35.94516 -10.3295,13.68044 -19.3566,20.96189 -36.2264,29.22138 -18.4556,9.03594 -37.2682,13.49927 -59.588,14.13755 -9.1667,0.26213 -24.7667,0.75925 -34.6667,1.10471 -9.9,0.34545 -23.1,0.11026 -29.3333,-0.52276 z m -1454.7087,-17.1449 c -10.3763,-9.59424 -20.6867,-18.38562 -22.912,-19.53641 -5.1707,-2.67388 -22.6027,-16.42033 -42.7086,-33.67905 -3.7338,-3.20522 -9.9196,-7.8303 -13.746,-10.27796 -3.8262,-2.44768 -7.7746,-5.23294 -8.7741,-6.18946 -0.9996,-0.95653 -5.8593,-4.92679 -10.7997,-8.8228 -4.9403,-3.89601 -10.9403,-9.33116 -13.3334,-12.07811 -2.3929,-2.74694 -7.0509,-6.89004 -10.3509,-9.20689 -25.4804,-17.88915 -44.0114,-32.07549 -44.8902,-34.36565 -1.1707,-3.05059 -4.3986,-2.18891 -5.8217,1.55405 -1.3466,3.54197 -3.568,65.52808 -2.8627,79.88112 1.3945,28.37555 -0.3044,54.12328 -3.9741,60.23087 l -2.5421,4.23088 -18.2571,0.43579 c -10.0413,0.23969 -28.2659,0.24697 -40.4989,0.0161 l -22.2419,-0.41961 -4.9542,-4.28258 -4.9542,-4.28257 1.2185,-23.87489 c 0.6701,-13.13119 0.7215,-28.4152 0.1141,-33.96447 -0.6073,-5.54928 -0.8407,-26.88959 -0.5186,-47.42292 0.3222,-20.53334 0.6648,-43.03334 0.7614,-50 0.097,-6.96667 -0.1392,-30.06667 -0.524,-51.33334 -0.747,-41.285988 -0.7815,-47.499248 -0.5216,-93.999998 0.1712,-30.6204901 0.8369,-36.000001 4.455,-36.000001 1.1295,0 7.1087,4.050001 13.2871,9.000001 6.1784,4.95 14.5686,11.35455 18.6449,14.23232 4.0762,2.87778 8.2934,6.57852 9.3715,8.22387 2.1661,3.30581 15.2363,13.51639 21.1547,16.5263 2.0786,1.0571 5.6083,4.0051 7.8437,6.55112 2.2355,2.54602 7.7348,6.98894 12.2208,9.87317 4.4859,2.88423 11.1563,8.05269 14.8229,11.48547 6.9315,6.48932 19.1732,16.17089 26.268,20.774417 4.6074,2.989621 9.2021,7.500771 14.9395,14.668091 2.1308,2.66182 5.8361,5.85042 8.234,7.08579 2.3979,1.23536 9.6545,6.76598 16.1259,12.29025 15.4973,13.22943 26.3336,19.39948 30.6313,17.4413 2.8597,-1.30296 3.1419,-2.27879 3.2169,-11.12351 0.045,-5.33239 0.1954,-36.37131 0.3334,-68.975378 l 0.251,-59.28013 4.5659,-3.0770001 c 4.5648,-3.0763299 4.5739,-3.0768499 41.3333,-2.3557099 37.545,0.73656 43.6476,1.4926399 46.2976,5.73604 3.354,5.37072 4.6846,18.46526 4.6051,45.32383 -0.077,26.19339 -0.043,35.42409 0.2721,72.933098 0.073,8.8 0.013,25.6 -0.1434,37.33333 -0.969,74.39613 -0.9447,114.47006 0.085,142 1.2479,33.34162 0.2403,42.79806 -4.6608,43.74191 -1.3248,0.25513 -9.6941,-6.50763 -21.0641,-17.02075 z M 388.06962,350.07541 c -13.30979,-0.78048 -14.56097,-1.09543 -17.99332,-4.52911 l -3.68887,-3.69028 -0.51581,-38.97638 c -0.28369,-21.437 -0.41115,-44.67638 -0.28324,-51.64305 0.12787,-6.96666 0.0571,-42.66666 -0.15753,-79.33333 -0.71939,-122.937648 0.15529,-151.885768 4.84232,-160.258558 2.57996,-4.60881 3.4525,-5.13678 9.50282,-5.75005 8.8949,-0.901596 53.30651,-0.367742 66.24807,0.79634 7.21931,0.64937 11.57076,1.7873099 14.49385,3.79025 l 4.17722,2.86227 -0.36458,15.94654 c -0.2005,8.7706 -0.3305,19.84654 -0.28888,24.61321 0.0416,4.76666 0.13344,22.32547 0.20404,39.01958 l 0.12836,30.352908 4.42971,4.83365 4.42971,4.83365 50.07791,0.22117 c 59.26904,0.26179 56.08126,1.0354 56.16653,-13.63059 0.0287,-4.93004 -0.73797,-12.19766 -1.70361,-16.15026 -1.22348,-5.007981 -1.4349,-10.060428 -0.6974,-16.666668 0.58208,-5.21406 1.13197,-24.03336 1.222,-41.82066 0.15701,-31.02627 0.27816,-32.45505 2.98096,-35.1578401 3.87128,-3.8712799 12.95268,-4.5859629 52.10896,-4.1008299 l 32.3481,0.40079 5.13019,4.93255 5.1302,4.93255 0.89671,15.33333 c 0.49317,8.43333 1.38044,20.99063 1.97168,27.90511 0.59124,6.91447 0.59737,15.12834 0.0136,18.25304 -1.07238,5.74011 -1.11874,8.82432 -0.72928,48.508518 0.1188,12.1 0.0687,26.8 -0.1112,32.66667 -0.17991,5.86666 -0.27016,12.76666 -0.20055,15.33333 0.0696,2.56667 0.16129,24.16667 0.20375,48 0.0424,23.83333 0.0924,46.63334 0.11106,50.66667 0.0187,4.03333 -0.0476,14.23333 -0.14708,22.66667 -0.0996,8.43333 -0.0923,16.83333 0.0163,18.66666 0.10853,1.83334 0.082,8.6295 -0.0588,15.10256 -0.23975,11.01779 -0.50027,12.01342 -4.08044,15.59359 l -3.82435,3.82435 -20.50898,0.37421 c -26.70042,0.48717 -58.11248,0.0685 -63.18843,-0.84204 -7.51104,-1.34748 -7.95291,-3.439 -8.32095,-39.386 -0.18396,-17.96667 -0.48045,-41.36667 -0.65889,-52 -0.17844,-10.63334 0.15989,-22.1915 0.75184,-25.68482 1.00131,-5.90904 0.80756,-6.6202 -2.78129,-10.20905 -4.54464,-4.54464 -15.01235,-6.43508 -26.10979,-4.71535 -8.78257,1.361 -28.97457,2.04936 -57.02128,1.94388 l -22.15313,-0.0833 -2.3842,3.63876 c -2.17151,3.31413 -2.42302,8.46227 -2.81927,57.70764 -0.23928,29.73791 -0.76788,55.98274 -1.17467,58.32187 -1.46525,8.42555 -13.24119,14.3162 -22.77192,11.39113 -2.64937,-0.81312 -6.45047,-0.93321 -9.28717,-0.29344 -7.57235,1.70786 -27.94558,2.40386 -43.56096,1.48816 z m 396.84077,-0.17215 c -22.27209,-0.7376 -25.38161,-1.76765 -23.85147,-7.90106 0.47093,-1.88775 1.66046,-4.33227 2.64338,-5.43227 0.98292,-1.1 3.96712,-7.1 6.63156,-13.33333 5.85793,-13.70435 6.96481,-16.08263 8.68766,-18.66667 0.7334,-1.1 3.43325,-6.5 5.99968,-12 5.34735,-11.45967 12.68707,-25.09988 19.73009,-36.66667 2.6792,-4.4 6.4569,-11.3 8.395,-15.33333 4.2205,-8.78366 5.717,-11.72723 13.8958,-27.33334 3.4589,-6.6 6.738,-13.5 7.2868,-15.33333 1.5086,-5.04015 12.7069,-28.15297 15.7038,-32.41239 1.4496,-2.06014 4.3405,-8.17337 6.4243,-13.58494 2.0838,-5.41158 7.8928,-16.926 12.9089,-25.58762 5.0161,-8.66161 10.721,-20.13179 12.6776,-25.48928 1.9566,-5.357488 5.3013,-11.957488 7.4327,-14.666668 2.1313,-2.70917 4.3246,-6.36678 4.8739,-8.12802 1.861,-5.96708 11.162,-25.31846 14.6025,-30.38153 1.8818,-2.76939 3.4215,-6.04622 3.4215,-7.28186 0,-6.22911 18.47,-37.135151 22.1919,-37.134011 2.3683,7.25e-4 28.4748,49.210741 28.4748,53.674261 0,1.41922 1.1247,4.17303 2.4993,6.11956 1.3746,1.94654 4.7537,8.03916 7.5091,13.53916 2.7553,5.5 6.6427,12.4 8.6386,15.33334 1.9958,2.93333 6.0815,10.591278 9.0793,17.017668 2.9978,6.42638 6.7046,13.44552 8.2374,15.59809 1.53281,2.15256 4.77901,9.19461 7.21381,15.649 2.4347,6.45437 6.936,15.93524 10.0027,21.06857 6.093,10.19915 16.8036,31.82836 26.9993,54.52311 3.5886,7.98771 8.5685,17.88771 11.0666,22 2.498,4.11229 5.8741,11.03739 7.5022,15.38911 1.6282,4.35172 5.2332,12.15172 8.0112,17.33333 2.7779,5.18162 6.0929,12.12112 7.3665,15.42112 1.2737,3.3 3.3467,7.5 4.6067,9.33334 1.26,1.83333 4.5217,7.53333 7.2482,12.66666 2.7264,5.13334 6.358,11.43334 8.0702,14 1.7121,2.56667 4.3077,7.7291 5.7681,11.47206 2.6068,6.68144 2.6095,6.88044 0.1482,10.92764 -3.3094,5.44189 -6.2478,5.85248 -34.6341,4.83944 -12.8333,-0.458 -30.5523,-0.92416 -39.3754,-1.03592 -13.0073,-0.16478 -16.7438,-0.66096 -19.7516,-2.62291 -5.2721,-3.43901 -13.64971,-17.01032 -15.58601,-25.24849 -3.7757,-16.06475 -7.0061,-18.00688 -26.2474,-15.78006 -9.1912,1.06371 -16.7779,1.11343 -25.7063,0.16844 -20.6626,-2.18694 -50.2288,-1.77462 -56.9554,0.79428 -3.1412,1.19963 -5.7112,3.05936 -5.7112,4.13274 0,3.31018 -8.979,22.87628 -13.901,30.29154 -2.6722,4.02588 -6.3618,7.73216 -8.6343,8.67347 -4.4161,1.8292 -38.3843,2.48763 -71.5951,1.38777 z m 168.0281,-115.03093 c 1.6862,-4.77592 -0.5586,-13.43324 -6.4742,-24.96907 -2.4443,-4.76667 -5.5242,-12.11667 -6.8441,-16.33333 -3.3715,-10.77122 -5.7107,-10.24758 -11.9121,2.66666 -6.0433,12.58495 -12.6673,31.57574 -12.6673,36.31679 0,1.91576 0.6054,4.08865 1.3454,4.82864 0.7728,0.7728 8.56,1.31192 18.2962,1.26667 l 16.9507,-0.0788 1.3054,-3.6976 z M 1594.73,349.87813 c -17.0061,-0.56083 -21.3908,-1.10503 -23.1603,-2.87453 -2.0214,-2.02143 -2.0074,-2.51226 0.1895,-6.64154 5.2292,-9.82885 10.388,-20.72748 12.0925,-25.54689 0.9898,-2.79845 2.9075,-6.69845 4.2616,-8.66667 1.354,-1.96821 3.274,-5.67857 4.2667,-8.24524 2.1017,-5.43482 15.2683,-30.12465 22.7529,-42.66667 2.8447,-4.76666 6.711,-11.96666 8.5918,-16 1.8809,-4.03333 4.3861,-9.13333 5.5674,-11.33333 9.1664,-17.07244 13.127,-25.16423 15.9888,-32.66667 1.8184,-4.76666 4.3898,-10.46666 5.7143,-12.66666 1.3245,-2.2 2.8463,-5.5 3.3816,-7.33334 0.5355,-1.83333 2.4895,-5.35556 4.3424,-7.82716 1.8528,-2.4716 5.2981,-9.3716 7.6563,-15.33333 2.358,-5.96173 8.1385,-17.43951 12.8456,-25.50617 4.707,-8.06667 10.2832,-19.39955 12.3914,-25.18418 2.1083,-5.784638 5.4611,-12.384638 7.4508,-14.666668 1.9898,-2.28204 4.068,-5.59017 4.6183,-7.35141 1.6544,-5.29455 10.77,-24.57954 14.2777,-30.20594 1.8032,-2.89216 4.077,-8.16155 5.053,-11.70975 0.976,-3.5482 3.1748,-8.51476 4.8862,-11.03679 1.7115,-2.52204 4.101,-6.51897 5.3098,-8.88206 2.7649,-5.40497 9.7002,-14.296541 11.1512,-14.296541 2.0692,0 23.272,38.643351 27.4338,50.000001 2.9243,7.97964 15.5908,32.51078 20.6694,40.03024 1.9924,2.94996 5.2452,9.219008 7.2285,13.931208 1.9833,4.7122 5.5301,11.59859 7.8817,15.30309 2.3515,3.70451 5.6286,10.33546 7.2823,14.73546 3.8365,10.20742 10.4995,23.78254 15.1299,30.82598 3.6632,5.57198 12.9594,24.69676 22.6066,46.50736 2.9194,6.6 7.9247,16.5 11.123,22 3.1982,5.5 7.1149,13.49485 8.7037,17.76633 1.5887,4.27148 5.4671,12.67148 8.6187,18.66667 3.1516,5.99519 6.1686,12.36559 6.7046,14.15647 0.5362,1.79086 3.1866,6.89086 5.89,11.33333 2.7035,4.44245 5.3071,9.12567 5.7858,10.40712 0.4786,1.28145 2.9154,5.52695 5.415,9.43443 5.0912,7.95882 10.2083,18.90702 10.2083,21.84104 0,1.06318 -1.7511,3.68412 -3.8912,5.82428 l -3.8912,3.8912 -25.7755,-0.79259 c -14.1765,-0.43592 -33.075,-0.88312 -41.9968,-0.99377 -14.0794,-0.17462 -16.7201,-0.56418 -20,-2.95048 -6.2509,-4.54803 -14.735,-18.34571 -16.4957,-26.8267 -1.1603,-5.58888 -2.6936,-8.6719 -5.7185,-11.49762 -4.129,-3.85695 -4.1455,-3.85987 -15.5155,-2.74799 -12.5141,1.22376 -12.4712,1.22393 -53.0775,-0.21755 -35.4281,-1.25766 -37.1118,-0.77897 -41.6849,11.85176 -2.5628,7.07815 -6.6716,15.60608 -12.9221,26.81998 -3.3723,6.05001 -9.9563,7.50992 -35.0959,7.78213 -12.7976,0.13859 -32.7084,-0.0593 -44.246,-0.43984 z m 168.5112,-115.28547 c 1.3869,-5.16297 -0.5651,-12.35076 -6.524,-24.02273 -2.6208,-5.13334 -5.8024,-12.63334 -7.0704,-16.66667 -3.3048,-10.51235 -5.9021,-9.93609 -12.0195,2.66667 -2.6696,5.5 -6.8444,15.84026 -9.2773,22.97838 -3.5575,10.43719 -4.1468,13.58587 -3.01,16.08091 1.3795,3.02751 1.8419,3.10056 19.1232,3.02161 l 17.7097,-0.0809 z m 260.5009,115.08595 c -10.5444,-0.91152 -14.2994,-1.81191 -18.1308,-4.34735 l -4.8321,-3.19774 -0.9087,-15.19888 c -0.5776,-9.66191 -0.3658,-17.7298 0.5814,-22.14618 0.9072,-4.23016 1.1829,-12.80174 0.7049,-21.91625 -0.4317,-8.23292 -0.9479,-32.36895 -1.1469,-53.63562 -0.199,-21.26666 -0.7558,-39.29032 -1.2372,-40.05254 -0.4816,-0.76224 -0.3104,-7.89396 0.3802,-15.84827 1.8935,-21.80615 2.4452,-88.987028 0.8471,-103.142338 -0.9696,-8.58866 -0.9725,-14.30159 -0.013,-18.66667 0.7825,-3.54662 0.977,-9.7766 0.4461,-14.28354 -1.6149,-13.71063 -0.3568,-20.25905 4.8673,-25.33267 4.308,-4.1838101 5.2696,-4.48743 16.8198,-5.31045 16.6116,-1.183673 29.5897,-1.232382 46.2505,-0.17358 8.7172,0.55398 17.5219,0.30464 23.3333,-0.6608 7.0131,-1.165069 12.9794,-1.177716 24,-0.0509 8.0667,0.82481 24.8667,2.3756999 37.3334,3.4464399 12.4666,1.0707401 25.3666,2.8115201 28.6666,3.8684001 3.3,1.05688 10.8,3.26623 16.6667,4.90968 9.5161,2.66578 14.5375,4.848 26,11.29934 1.8333,1.03184 7.6565,3.77993 12.9404,6.10687 5.2839,2.32694 11.3964,6.10435 13.5835,8.39424 2.1869,2.28989 6.7572,6.26344 10.156,8.8301 24.326,18.37044 46.7809,57.914748 52.6197,92.666668 3.2577,19.38955 3.8363,23.90742 3.1947,24.94559 -0.387,0.62605 -1.2698,11.13427 -1.9619,23.35157 -1.2264,21.65026 -3.5695,35.13372 -7.1024,40.8726 -0.9583,1.55663 -3.4337,7.8027 -5.5009,13.88015 -2.1084,6.19832 -5.5926,13.2233 -7.9354,16 -2.297,2.72255 -6.1752,7.88872 -8.618,11.48039 -5.4117,7.95677 -28.6557,30.70095 -38.709,37.87667 -8.4652,6.04213 -22.2359,13.59304 -24.7898,13.59304 -0.9613,0 -6.4268,2.03392 -12.1457,4.51981 -15.7364,6.84043 -30.2595,11.4796 -35.9552,11.48535 -2.8101,0.003 -12.6093,1.46792 -21.776,3.25574 -14.1991,2.76932 -20.4175,3.24094 -42,3.18538 -48.722,-0.12547 -64.0357,0.003 -68.6667,0.57148 -2.5666,0.31562 -10.651,0.0565 -17.9653,-0.57575 z m 130.632,-90.73128 c 27.7983,-10.27631 37.5412,-17.10756 48.8782,-34.27119 5.849,-8.85539 6.9232,-11.59143 8.678,-22.10621 2.5833,-15.478 3.3873,-36.17647 1.7422,-44.85063 -0.7114,-3.75177 -3.7893,-12.51193 -6.8396,-19.46703 -5.2925,-12.06808 -6.0889,-13.10745 -17.4345,-22.75696 -13.1239,-11.16195 -14.0005,-11.75042 -26.1485,-17.552551 -5.9838,-2.857897 -10.4688,-4.047177 -15.3334,-4.065737 -3.7816,-0.0144 -11.6757,-0.96579 -17.5424,-2.11414 -12.9733,-2.53942 -22.9238,-2.40373 -27.1852,0.37069 l -3.185,2.07378 0.9329,20.397518 c 0.7256,15.86419 0.4353,24.04164 -1.3056,36.79415 -1.5212,11.14225 -1.9408,19.61844 -1.3093,26.45044 0.511,5.52959 0.8137,26.13117 0.6725,45.78131 -0.2316,32.23278 -0.031,35.97708 2.0523,38.27892 2.0634,2.28009 4.2417,2.54652 20.4849,2.50545 17.9104,-0.0453 18.39,-0.12507 32.8425,-5.46781 z m -2027.53562,89.97613 -27.535605,-0.40684 -4.900261,-5.424 -4.90026,-5.424 0.10435,-36.21601 c 0.0574,-19.91881 0.13645,-46.71602 0.17569,-59.54935 0.0392,-12.83333 0.0778,-26.93333 0.0856,-31.33333 0.008,-4.4 -0.26434,-30.92208 -0.60486,-58.93795 -0.59694,-49.11234 -0.7196,-51.07906 -3.42266,-54.875148 -3.51831,-4.94101 -9.1692,-5.89846 -36.79975,-6.23507 -28.5874,-0.34828 -41.2342698,-1.92684 -44.9134598,-5.60604 -2.87206,-2.87206 -2.94882,-3.7509 -2.96793,-33.98039 -0.0214,-33.83354 0.41917,-36.22934 7.64575,-41.5788301 C 12.489114,6.629392 13.968824,6.563232 78.138424,6.256412 114.20136,6.083982 155.4074,6.025852 169.7074,6.127232 c 14.3,0.10139 28.4,0.14461 31.33333,0.0961 2.93333,-0.0486 18.77157,-0.15162 35.19608,-0.22903 42.37097,-0.1997 40.92713,-1.702702 39.54629,41.16654 -0.93552,29.04391 -1.99897,37.24568 -5.17058,39.87789 -1.0965,0.91 -14.50851,1.72911 -36.17947,2.20958 -18.94037,0.41992 -35.40869,1.28351 -36.59627,1.91907 -1.18757,0.63557 -3.3525,2.47382 -4.81097,4.085 -2.3142,2.556517 -2.67591,4.990788 -2.84149,19.123498 -0.1044,8.90675 -0.87334,19.90307 -1.70882,24.43629 -1.07433,5.82917 -1.11648,9.92788 -0.14393,14 0.87717,3.67285 1.14544,23.13901 0.74084,53.7578 -0.83908,63.4988 -0.82376,60.27013 -0.45109,95 0.33738,31.44227 -0.52078,38.62637 -5.26466,44.07347 -2.81081,3.22746 -14.43164,3.90188 -56.51819,3.28006 z"
       id="path199" />
  </g>
</svg>
