<?xml version="1.0" standalone="no"?>
<!DOCTYPE svg PUBLIC "-//W3C//DTD SVG 20010904//EN"
        "http://www.w3.org/TR/2001/REC-SVG-20010904/DTD/svg10.dtd">
<svg version="1.0" xmlns="http://www.w3.org/2000/svg"
     width="1067.000000pt" height="500.000000pt"
     viewBox="0 0 1067.000000 500.000000"
     preserveAspectRatio="xMidYMid meet">

    <g transform="translate(0.000000,500.000000) scale(0.100000,-0.100000)"
       fill="var(--logo-color-light)" stroke="none">
        <path d="M1500 2972 c0 -273 1 -278 25 -330 33 -70 121 -162 220 -227 78 -52
198 -115 243 -129 l22 -7 0 278 c0 278 0 279 -25 329 -35 71 -87 128 -176 194
-69 51 -216 134 -282 159 l-27 11 0 -278z"/>
        <path d="M3180 2630 l0 -550 45 0 45 0 0 550 0 550 -45 0 -45 0 0 -550z"/>
        <path d="M5630 3110 l0 -70 70 0 70 0 0 70 0 70 -70 0 -70 0 0 -70z"/>
        <path d="M2717 3095 c-301 -136 -541 -335 -610 -505 -21 -53 -22 -68 -25 -449
-3 -376 -2 -393 15 -386 10 4 30 12 46 17 24 9 27 15 27 56 0 72 36 204 76
284 37 73 120 187 154 211 10 7 28 30 41 52 71 124 179 226 307 290 l72 36 0
219 c0 121 -1 220 -2 220 -2 0 -47 -20 -101 -45z"/>
        <path d="M3643 2850 c-64 -13 -116 -44 -166 -100 -60 -66 -88 -141 -94 -252
-12 -198 56 -342 192 -408 71 -34 207 -35 281 -2 144 65 225 247 197 446 -33
230 -198 358 -410 316z m175 -89 c51 -26 97 -76 124 -136 20 -43 23 -66 23
-170 0 -112 -2 -124 -28 -175 -54 -105 -112 -144 -217 -144 -159 0 -252 120
-252 324 0 149 49 252 144 299 57 28 154 29 206 2z"/>
        <path d="M4348 2847 c-60 -17 -113 -58 -149 -116 -50 -77 -64 -140 -63 -286 0
-146 17 -208 77 -287 90 -118 290 -130 404 -25 l46 42 -5 -95 c-5 -118 -30
-172 -98 -210 -39 -22 -56 -25 -135 -24 -65 1 -105 7 -144 22 -30 12 -56 21
-57 19 -1 -1 -4 -19 -8 -39 l-7 -37 58 -18 c42 -13 91 -18 173 -18 108 0 118
2 168 29 58 32 94 74 120 138 14 37 17 99 20 471 l3 427 -34 0 c-40 0 -47 -11
-47 -72 l0 -41 -38 41 c-68 73 -186 106 -284 79z m199 -88 c25 -12 59 -41 78
-67 l35 -45 0 -193 0 -194 -37 -42 c-51 -56 -102 -78 -183 -78 -149 0 -220
100 -220 311 0 158 44 264 128 309 52 27 142 27 199 -1z"/>
        <path d="M5113 2850 c-92 -19 -167 -78 -215 -167 -38 -71 -51 -146 -46 -261 4
-84 10 -109 35 -165 37 -77 90 -134 158 -167 72 -34 207 -35 282 -1 143 64
222 246 194 445 -21 149 -101 265 -209 300 -61 20 -147 27 -199 16z m175 -89
c94 -49 144 -139 150 -277 7 -151 -41 -266 -134 -320 -39 -23 -59 -28 -113
-28 -135 1 -222 86 -251 244 -29 160 33 325 142 379 57 28 154 29 206 2z"/>
        <path d="M6197 2850 c-53 -14 -88 -33 -124 -70 l-30 -31 -12 45 -11 46 -55 0
-55 0 0 -530 0 -530 70 0 70 0 0 180 c0 99 3 180 6 180 3 0 21 -12 39 -26 19
-14 55 -32 81 -40 143 -43 286 19 349 152 52 110 54 305 5 437 -26 69 -96 149
-150 171 -52 20 -135 28 -183 16z m102 -124 c43 -23 87 -79 107 -138 27 -80
24 -228 -5 -293 -28 -63 -46 -83 -96 -106 -78 -36 -173 -15 -228 50 l-27 33 0
183 0 184 32 37 c18 20 46 43 63 50 40 18 119 17 154 0z"/>
        <path d="M6890 2854 c-101 -20 -168 -64 -204 -136 -31 -63 -33 -108 -6 -164
32 -65 105 -107 253 -145 134 -34 177 -66 177 -134 0 -54 -75 -105 -155 -105
-84 0 -175 59 -175 114 0 26 -1 26 -70 26 -69 0 -70 0 -70 -27 0 -69 71 -156
159 -197 66 -29 236 -29 302 0 104 48 156 127 147 224 -10 99 -97 164 -279
208 -52 13 -109 32 -127 42 -41 25 -52 76 -25 122 24 42 65 62 128 62 67 0
114 -27 140 -81 l20 -42 68 -1 68 0 -7 38 c-13 72 -68 137 -144 171 -46 20
-154 33 -200 25z"/>
        <path d="M8390 2847 c-49 -14 -110 -48 -130 -72 -21 -25 -30 -17 -30 25 l0 40
-65 0 -65 0 0 -380 0 -380 70 0 70 0 0 284 0 284 27 33 c70 83 213 79 270 -8
16 -24 18 -57 21 -310 l3 -283 69 0 69 0 3 263 c3 258 3 263 28 307 35 62 80
90 144 90 64 0 111 -27 134 -78 14 -31 17 -81 20 -309 l3 -273 71 0 70 0 -4
283 c-4 261 -6 286 -26 338 -39 99 -116 152 -222 153 -89 1 -135 -18 -193 -77
-26 -27 -49 -48 -50 -46 -32 48 -66 83 -97 99 -50 26 -133 33 -190 17z"/>
        <path d="M5630 2460 l0 -380 70 0 70 0 0 380 0 380 -70 0 -70 0 0 -380z"/>
        <path d="M7350 2575 c0 -293 6 -343 53 -412 83 -123 285 -137 392 -27 l44 45
3 -48 3 -48 63 -3 62 -3 0 381 0 380 -70 0 -70 0 0 -280 0 -280 -36 -39 c-41
-46 -86 -64 -161 -63 -67 0 -98 20 -124 75 -17 38 -19 69 -19 315 l0 272 -70
0 -70 0 0 -265z"/>
        <path d="M2752 2636 c-92 -50 -167 -109 -217 -174 -24 -31 -43 -57 -42 -58 1
-1 37 15 80 36 75 36 184 70 227 70 18 0 20 6 20 80 0 44 -1 80 -2 80 -2 0
-31 -16 -66 -34z"/>
        <path d="M2715 2445 c-66 -19 -179 -76 -240 -122 -42 -32 -52 -48 -68 -98 -21
-68 -34 -244 -21 -293 l9 -33 85 58 c47 32 124 96 171 143 102 102 155 197
165 298 l7 62 -29 -1 c-16 0 -51 -7 -79 -14z"/>
        <path d="M2339 2178 c-17 -24 -42 -66 -55 -94 -29 -61 -64 -194 -64 -241 l0
-33 69 35 70 35 -6 102 c-3 70 0 124 9 171 8 37 13 67 11 67 -1 0 -17 -19 -34
-42z"/>
    </g>
</svg>

